{
    "accessors" : [
        {
            "bufferView" : 0,
            "componentType" : 5125,
            "count" : 114948,
            "max" : [
                76619
            ],
            "min" : [
                0
            ],
            "type" : "SCALAR"
        },
        {
            "bufferView" : 1,
            "componentType" : 5126,
            "count" : 76620,
            "max" : [
                1.0,
                1.3674647808074951,
                6.50201940536499
            ],
            "min" : [
                -1.5246115922927856,
                -1.1093640327453613,
                -6.50201940536499
            ],
            "type" : "VEC3"
        },
        {
            "bufferView" : 2,
            "componentType" : 5126,
            "count" : 76620,
            "max" : [
                0.9996970295906067,
                0.9999973177909851,
                0.999697208404541
            ],
            "min" : [
                -0.999944806098938,
                -0.9999496340751648,
                -0.999697208404541
            ],
            "type" : "VEC3"
        }
    ],
    "asset" : {
        "generator" : "Khronos Blender glTF 2.0 exporter",
        "version" : "2.0"
    },
    "bufferViews" : [
        {
            "buffer" : 0,
            "byteLength" : 459792,
            "byteOffset" : 0,
            "target" : 34963
        },
        {
            "buffer" : 0,
            "byteLength" : 919440,
            "byteOffset" : 459792,
            "target" : 34962
        },
        {
            "buffer" : 0,
            "byteLength" : 919440,
            "byteOffset" : 1379232,
            "target" : 34962
        }
    ],
    "buffers" : [
        {
            "byteLength" : 2298672,
            "uri" : "bomber.bin"
        }
    ],
    "meshes" : [
        {
            "name" : "Cylinder",
            "primitives" : [
                {
                    "attributes" : {
                        "NORMAL" : 2,
                        "POSITION" : 1
                    },
                    "indices" : 0
                }
            ]
        }
    ],
    "nodes" : [
        {
            "name" : "Camera",
            "rotation" : [
                0.483536034822464,
                0.33687159419059753,
                -0.20870360732078552,
                0.7804827094078064
            ],
            "translation" : [
                7.481131553649902,
                5.34366512298584,
                6.5076398849487305
            ]
        },
        {
            "mesh" : 0,
            "name" : "Cylinder",
            "rotation" : [
                0.5000122785568237,
                -0.500012218952179,
                -0.49998781085014343,
                0.4999878704547882
            ],
            "scale" : [
                0.8001646995544434,
                3.9374747276306152,
                0.8001646995544434
            ]
        },
        {
            "name" : "Lamp",
            "rotation" : [
                0.16907575726509094,
                0.7558802962303162,
                -0.27217137813568115,
                0.570947527885437
            ],
            "scale" : [
                1.0,
                1.0,
                0.9999999403953552
            ],
            "translation" : [
                4.076245307922363,
                5.903861999511719,
                -1.0054539442062378
            ]
        }
    ],
    "scene" : 0,
    "scenes" : [
        {
            "name" : "Scene",
            "nodes" : [
                1,
                2,
                0
            ]
        }
    ]
}
